<mxfile host="app.diagrams.net" modified="2024-05-02T03:29:09.258Z" agent="Mozilla/5.0 (Windows NT 10.0; Win64; x64) AppleWebKit/537.36 (KHTML, like Gecko) Chrome/124.0.0.0 Safari/537.36" etag="Hm-yogTTHsWw8rTqxVxN" version="24.3.1" type="github">
  <diagram name="第 1 页" id="CwVdzNZEPd9-sQuGmuCM">
    <mxGraphModel dx="1430" dy="770" grid="1" gridSize="10" guides="1" tooltips="1" connect="1" arrows="1" fold="1" page="1" pageScale="1" pageWidth="827" pageHeight="1169" math="0" shadow="0">
      <root>
        <mxCell id="0" />
        <mxCell id="1" parent="0" />
        <mxCell id="_4QpkgfD6oUgvaKTKm7n-5" value="" style="edgeStyle=orthogonalEdgeStyle;rounded=0;orthogonalLoop=1;jettySize=auto;html=1;" edge="1" parent="1" source="_4QpkgfD6oUgvaKTKm7n-1" target="_4QpkgfD6oUgvaKTKm7n-4">
          <mxGeometry relative="1" as="geometry" />
        </mxCell>
        <mxCell id="_4QpkgfD6oUgvaKTKm7n-32" style="edgeStyle=orthogonalEdgeStyle;rounded=0;orthogonalLoop=1;jettySize=auto;html=1;exitX=0;exitY=0.5;exitDx=0;exitDy=0;fontFamily=Helvetica;fontSize=12;fontColor=default;entryX=0.5;entryY=1;entryDx=0;entryDy=0;" edge="1" parent="1" source="_4QpkgfD6oUgvaKTKm7n-1" target="_4QpkgfD6oUgvaKTKm7n-4">
          <mxGeometry relative="1" as="geometry">
            <mxPoint x="280" y="530" as="targetPoint" />
          </mxGeometry>
        </mxCell>
        <mxCell id="_4QpkgfD6oUgvaKTKm7n-1" value="&lt;font face=&quot;Comic Sans MS&quot; style=&quot;font-size: 18px;&quot;&gt;&lt;b&gt;task&lt;/b&gt;&lt;/font&gt;" style="rhombus;whiteSpace=wrap;html=1;" vertex="1" parent="1">
          <mxGeometry x="360" y="350" width="80" height="80" as="geometry" />
        </mxCell>
        <mxCell id="_4QpkgfD6oUgvaKTKm7n-9" style="edgeStyle=orthogonalEdgeStyle;rounded=0;orthogonalLoop=1;jettySize=auto;html=1;exitX=1;exitY=0.5;exitDx=0;exitDy=0;fontFamily=Helvetica;fontSize=12;fontColor=default;entryX=1;entryY=0.5;entryDx=0;entryDy=0;" edge="1" parent="1" source="_4QpkgfD6oUgvaKTKm7n-2" target="_4QpkgfD6oUgvaKTKm7n-1">
          <mxGeometry relative="1" as="geometry">
            <mxPoint x="520" y="390" as="targetPoint" />
            <Array as="points">
              <mxPoint x="521" y="660" />
              <mxPoint x="521" y="390" />
            </Array>
          </mxGeometry>
        </mxCell>
        <mxCell id="_4QpkgfD6oUgvaKTKm7n-30" style="edgeStyle=orthogonalEdgeStyle;rounded=0;orthogonalLoop=1;jettySize=auto;html=1;exitX=0.5;exitY=1;exitDx=0;exitDy=0;fontFamily=Helvetica;fontSize=12;fontColor=default;" edge="1" parent="1" source="_4QpkgfD6oUgvaKTKm7n-2">
          <mxGeometry relative="1" as="geometry">
            <mxPoint x="400.344827586207" y="750" as="targetPoint" />
          </mxGeometry>
        </mxCell>
        <mxCell id="_4QpkgfD6oUgvaKTKm7n-2" value="&lt;b&gt;&lt;font face=&quot;Comic Sans MS&quot; style=&quot;font-size: 18px;&quot;&gt;disk&lt;/font&gt;&lt;/b&gt;" style="rhombus;whiteSpace=wrap;html=1;" vertex="1" parent="1">
          <mxGeometry x="360" y="620" width="80" height="80" as="geometry" />
        </mxCell>
        <mxCell id="_4QpkgfD6oUgvaKTKm7n-8" value="" style="edgeStyle=orthogonalEdgeStyle;rounded=0;orthogonalLoop=1;jettySize=auto;html=1;fontFamily=Helvetica;fontSize=12;fontColor=default;" edge="1" parent="1" source="_4QpkgfD6oUgvaKTKm7n-4" target="_4QpkgfD6oUgvaKTKm7n-2">
          <mxGeometry relative="1" as="geometry" />
        </mxCell>
        <mxCell id="_4QpkgfD6oUgvaKTKm7n-10" style="edgeStyle=orthogonalEdgeStyle;rounded=0;orthogonalLoop=1;jettySize=auto;html=1;exitX=0.5;exitY=0;exitDx=0;exitDy=0;fontFamily=Helvetica;fontSize=12;fontColor=default;" edge="1" parent="1" source="_4QpkgfD6oUgvaKTKm7n-4">
          <mxGeometry relative="1" as="geometry">
            <mxPoint x="520" y="524" as="targetPoint" />
          </mxGeometry>
        </mxCell>
        <mxCell id="_4QpkgfD6oUgvaKTKm7n-4" value="&lt;b&gt;&lt;font face=&quot;Comic Sans MS&quot; style=&quot;font-size: 18px;&quot;&gt;stripe&lt;/font&gt;&lt;/b&gt;" style="rhombus;whiteSpace=wrap;html=1;direction=south;" vertex="1" parent="1">
          <mxGeometry x="360" y="484" width="80" height="80" as="geometry" />
        </mxCell>
        <mxCell id="_4QpkgfD6oUgvaKTKm7n-19" style="edgeStyle=orthogonalEdgeStyle;rounded=0;orthogonalLoop=1;jettySize=auto;html=1;exitX=0.5;exitY=1;exitDx=0;exitDy=0;entryX=0.5;entryY=0;entryDx=0;entryDy=0;fontFamily=Helvetica;fontSize=12;fontColor=default;" edge="1" parent="1" source="_4QpkgfD6oUgvaKTKm7n-17" target="_4QpkgfD6oUgvaKTKm7n-1">
          <mxGeometry relative="1" as="geometry" />
        </mxCell>
        <mxCell id="_4QpkgfD6oUgvaKTKm7n-17" value="&lt;font style=&quot;font-size: 14px;&quot;&gt;&lt;b style=&quot;&quot;&gt;开始&lt;/b&gt;&lt;/font&gt;" style="rounded=0;whiteSpace=wrap;html=1;strokeColor=default;align=center;verticalAlign=middle;fontFamily=Helvetica;fontSize=12;fontColor=default;fillColor=default;" vertex="1" parent="1">
          <mxGeometry x="366" y="273" width="68" height="30" as="geometry" />
        </mxCell>
        <mxCell id="_4QpkgfD6oUgvaKTKm7n-21" value="获取任务限流，失败阻塞" style="text;strokeColor=none;align=center;fillColor=none;html=1;verticalAlign=middle;whiteSpace=wrap;rounded=0;fontFamily=Helvetica;fontSize=12;fontColor=default;" vertex="1" parent="1">
          <mxGeometry x="321" y="310" width="82" height="30" as="geometry" />
        </mxCell>
        <mxCell id="_4QpkgfD6oUgvaKTKm7n-23" value="获取条带锁" style="text;strokeColor=none;align=center;fillColor=none;html=1;verticalAlign=middle;whiteSpace=wrap;rounded=0;fontFamily=Helvetica;fontSize=12;fontColor=default;" vertex="1" parent="1">
          <mxGeometry x="390" y="430" width="82" height="30" as="geometry" />
        </mxCell>
        <mxCell id="_4QpkgfD6oUgvaKTKm7n-24" value="放入失败队列" style="text;strokeColor=none;align=center;fillColor=none;html=1;verticalAlign=middle;whiteSpace=wrap;rounded=0;fontFamily=Helvetica;fontSize=12;fontColor=default;" vertex="1" parent="1">
          <mxGeometry x="440" y="400" width="82" height="30" as="geometry" />
        </mxCell>
        <mxCell id="_4QpkgfD6oUgvaKTKm7n-25" value="释放条带锁" style="text;strokeColor=none;align=center;fillColor=none;html=1;verticalAlign=middle;whiteSpace=wrap;rounded=0;fontFamily=Helvetica;fontSize=12;fontColor=default;" vertex="1" parent="1">
          <mxGeometry x="438" y="530" width="82" height="30" as="geometry" />
        </mxCell>
        <mxCell id="_4QpkgfD6oUgvaKTKm7n-26" value="获取磁盘限流" style="text;strokeColor=none;align=center;fillColor=none;html=1;verticalAlign=middle;whiteSpace=wrap;rounded=0;fontFamily=Helvetica;fontSize=12;fontColor=default;" vertex="1" parent="1">
          <mxGeometry x="321" y="564" width="82" height="30" as="geometry" />
        </mxCell>
        <mxCell id="_4QpkgfD6oUgvaKTKm7n-27" value="获取限流失败" style="text;strokeColor=none;align=center;fillColor=none;html=1;verticalAlign=middle;whiteSpace=wrap;rounded=0;fontFamily=Helvetica;fontSize=12;fontColor=default;" vertex="1" parent="1">
          <mxGeometry x="438" y="660" width="82" height="30" as="geometry" />
        </mxCell>
        <mxCell id="_4QpkgfD6oUgvaKTKm7n-31" value="限流成功" style="text;strokeColor=none;align=center;fillColor=none;html=1;verticalAlign=middle;whiteSpace=wrap;rounded=0;fontFamily=Helvetica;fontSize=12;fontColor=default;" vertex="1" parent="1">
          <mxGeometry x="332" y="705" width="82" height="30" as="geometry" />
        </mxCell>
        <mxCell id="_4QpkgfD6oUgvaKTKm7n-33" value="处理失败队列，释放任务限流" style="text;strokeColor=none;align=center;fillColor=none;html=1;verticalAlign=middle;whiteSpace=wrap;rounded=0;fontFamily=Helvetica;fontSize=12;fontColor=default;" vertex="1" parent="1">
          <mxGeometry x="236" y="450" width="108" height="30" as="geometry" />
        </mxCell>
      </root>
    </mxGraphModel>
  </diagram>
</mxfile>
